<?xml version="1.0" encoding="utf-8"?>
<!-- Generator: Adobe Illustrator 24.2.3, SVG Export Plug-In . SVG Version: 6.00 Build 0)  -->
<svg version="1.1" id="Layer_1" focusable="false" xmlns="http://www.w3.org/2000/svg" xmlns:xlink="http://www.w3.org/1999/xlink"
	 x="0px" y="0px" viewBox="0 0 2617.5 1673.7" style="enable-background:new 0 0 2617.5 1673.7;" xml:space="preserve">
<style type="text/css">
	.st0{fill:#FFFFFF;}
</style>
<path class="st0" d="M1402.8,915.2v7.8c0,13-10.5,23.5-23.5,23.5h-188c-13,0-23.5-10.5-23.5-23.5V797.7c0-13,10.5-23.5,23.5-23.5
	h7.8V876c0,21.6,17.6,39.2,39.2,39.2H1402.8z M1449.8,876V750.7c0-13-10.5-23.5-23.5-23.5h-188c-13,0-23.5,10.5-23.5,23.5V876
	c0,13,10.5,23.5,23.5,23.5h188C1439.2,899.5,1449.8,889,1449.8,876z M1293.1,774.2c0,13-10.5,23.5-23.5,23.5s-23.5-10.5-23.5-23.5
	c0-13,10.5-23.5,23.5-23.5S1293.1,761.2,1293.1,774.2z M1246.1,844.7l27.2-27.2c2.3-2.3,6-2.3,8.3,0l19.3,19.3l66.3-66.3
	c2.3-2.3,6-2.3,8.3,0l42.8,42.8v54.8h-172.3V844.7z"/>
</svg>
