<?xml version="1.0" encoding="utf-8"?>
<!-- Generator: Adobe Illustrator 24.2.3, SVG Export Plug-In . SVG Version: 6.00 Build 0)  -->
<svg version="1.1" id="Layer_1" xmlns="http://www.w3.org/2000/svg" xmlns:xlink="http://www.w3.org/1999/xlink" x="0px" y="0px"
	 viewBox="0 0 21 18" style="enable-background:new 0 0 21 18;" xml:space="preserve">
<path d="M21,6.2c0,3.4-2.8,6.2-6.2,6.2c-0.4,0-0.8,0-1.2-0.1l-0.8,0.9c-0.1,0.1-0.2,0.2-0.3,0.2c-0.1,0-0.2,0.1-0.3,0.1h-1.3v1.4
	c0,0.5-0.4,0.8-0.8,0.8H8.6v1.4c0,0.5-0.4,0.8-0.8,0.8H3.8C3.4,18,3,17.6,3,17.2v-2.7c0-0.2,0.1-0.4,0.2-0.6l5.7-5.7
	C8.7,7.5,8.6,6.9,8.6,6.2c0-3.4,2.8-6.2,6.2-6.2C18.2,0,21,2.8,21,6.2z M14.8,4.5c0,0.9,0.8,1.7,1.7,1.7c0.9,0,1.7-0.8,1.7-1.7
	s-0.8-1.7-1.7-1.7C15.6,2.8,14.8,3.6,14.8,4.5z"/>
<path d="M4.5,0C2,0,0,2,0,4.5S2,9,4.5,9S9,7,9,4.5S7,0,4.5,0z M4.5,6.9C4.3,7,4.2,7,4,6.9L2.1,4.7C2,4.6,2,4.4,2.1,4.3l0.4-0.5
	c0.1-0.1,0.3-0.1,0.4,0l1.3,1.5l2.8-3.1C7.2,2,7.4,2,7.5,2.1l0.4,0.5C8,2.7,8,2.9,7.9,3L4.5,6.9z"/>
</svg>
