<?xml version="1.0" encoding="utf-8"?>
<!-- Generator: Adobe Illustrator 24.2.3, SVG Export Plug-In . SVG Version: 6.00 Build 0)  -->
<svg version="1.1" id="Layer_1" focusable="false" xmlns="http://www.w3.org/2000/svg" xmlns:xlink="http://www.w3.org/1999/xlink"
	 x="0px" y="0px" viewBox="0 0 512 512" style="enable-background:new 0 0 512 512;" xml:space="preserve">
<style type="text/css">
	.st0{fill:#D8D8D8;}
	.st1{fill:#FFFFFF;}
</style>
<rect class="st0" width="512" height="512"/>
<path class="st1" d="M256,256c33.1,0,60-26.9,60-60s-26.9-60-60-60s-60,26.9-60,60S222.9,256,256,256z M298,271h-7.8
	c-10.4,4.8-22,7.5-34.2,7.5s-23.7-2.7-34.2-7.5H214c-34.8,0-63,28.2-63,63v19.5c0,12.4,10.1,22.5,22.5,22.5h165
	c12.4,0,22.5-10.1,22.5-22.5V334C361,299.2,332.8,271,298,271z"/>
</svg>
