<?xml version="1.0" encoding="utf-8"?>
<!-- Generator: Adobe Illustrator 24.2.3, SVG Export Plug-In . SVG Version: 6.00 Build 0)  -->
<svg version="1.1" id="Layer_1" xmlns="http://www.w3.org/2000/svg" xmlns:xlink="http://www.w3.org/1999/xlink" x="0px" y="0px"
	 viewBox="0 0 224 44" style="enable-background:new 0 0 224 44;" xml:space="preserve">
<path d="M76.3,22.8h-6.6l0-3.6h5.5c1,0,1.8-0.1,2.4-0.4c0.6-0.3,1.1-0.6,1.4-1.1c0.3-0.5,0.5-1.1,0.5-1.8c0-0.8-0.2-1.4-0.5-1.9
	c-0.3-0.5-0.8-0.8-1.4-1.1c-0.6-0.2-1.4-0.3-2.4-0.3h-3.7V34h-5.3V8.4h8.9c1.5,0,2.8,0.1,4,0.4c1.2,0.3,2.2,0.7,3,1.3
	c0.8,0.6,1.4,1.3,1.9,2.2c0.4,0.9,0.7,1.9,0.7,3.1c0,1.1-0.2,2-0.7,2.9c-0.5,0.9-1.2,1.6-2.2,2.2c-1,0.6-2.3,0.9-4,0.9L76.3,22.8z
	 M76.1,34h-7.8l2.1-4.1h5.7c0.9,0,1.7-0.1,2.3-0.4c0.6-0.3,1-0.7,1.3-1.2c0.3-0.5,0.4-1.1,0.4-1.8c0-0.8-0.1-1.4-0.4-2
	c-0.2-0.6-0.6-1-1.2-1.3c-0.6-0.3-1.3-0.5-2.2-0.5h-5.1l0-3.6h6.3l1.2,1.4c1.6,0,2.8,0.3,3.8,0.8c1,0.6,1.7,1.3,2.1,2.2
	c0.4,0.9,0.7,1.9,0.7,2.9c0,1.6-0.4,3-1.1,4.1c-0.7,1.1-1.8,2-3.1,2.5C79.7,33.7,78.1,34,76.1,34z"/>
<path d="M99.2,29.7v-8.5c0-0.6-0.1-1.1-0.3-1.6c-0.2-0.4-0.5-0.8-0.9-1c-0.4-0.2-0.9-0.4-1.6-0.4c-0.6,0-1,0.1-1.5,0.3
	c-0.4,0.2-0.7,0.5-0.9,0.8c-0.2,0.4-0.3,0.8-0.3,1.2h-5.1c0-0.8,0.2-1.6,0.6-2.3s0.9-1.4,1.6-1.9c0.7-0.6,1.6-1,2.5-1.3
	c1-0.3,2.1-0.5,3.3-0.5c1.5,0,2.8,0.2,3.9,0.7c1.1,0.5,2.1,1.2,2.7,2.2c0.7,1,1,2.2,1,3.7v8.1c0,1,0.1,1.9,0.2,2.6
	c0.1,0.7,0.3,1.2,0.6,1.7V34H100c-0.2-0.5-0.4-1.2-0.6-1.9C99.3,31.3,99.2,30.5,99.2,29.7z M99.9,22.4l0,2.9h-2.8
	c-0.7,0-1.2,0.1-1.7,0.2c-0.5,0.2-0.9,0.4-1.2,0.7c-0.3,0.3-0.6,0.6-0.7,0.9c-0.1,0.4-0.2,0.8-0.2,1.2c0,0.4,0.1,0.8,0.3,1.2
	c0.2,0.3,0.5,0.6,0.9,0.8c0.4,0.2,0.8,0.3,1.3,0.3c0.8,0,1.4-0.2,2-0.5s1-0.7,1.3-1.1c0.3-0.4,0.5-0.9,0.5-1.3l1.3,2.1
	c-0.2,0.5-0.4,1-0.8,1.5c-0.3,0.5-0.7,1-1.2,1.5c-0.5,0.4-1.1,0.8-1.8,1.1c-0.7,0.3-1.5,0.4-2.5,0.4c-1.2,0-2.3-0.2-3.3-0.7
	c-1-0.5-1.7-1.2-2.3-2c-0.6-0.9-0.8-1.9-0.8-3c0-1,0.2-1.9,0.6-2.7c0.4-0.8,0.9-1.4,1.7-2c0.7-0.5,1.7-0.9,2.8-1.2
	c1.1-0.3,2.4-0.4,3.8-0.4H99.9z"/>
<path d="M113.2,19v15h-5.1V15h4.7L113.2,19z M112.4,23.8h-1.4c0-1.4,0.2-2.7,0.5-3.8c0.4-1.1,0.9-2.1,1.5-2.9
	c0.7-0.8,1.4-1.4,2.3-1.8c0.9-0.4,1.9-0.7,3.1-0.7c0.9,0,1.7,0.1,2.4,0.4c0.7,0.3,1.4,0.7,1.9,1.2c0.5,0.6,0.9,1.3,1.2,2.2
	c0.3,0.9,0.4,2.1,0.4,3.4V34h-5.1V21.9c0-0.8-0.1-1.5-0.4-2c-0.2-0.5-0.6-0.8-1-1c-0.4-0.2-1-0.3-1.7-0.3c-0.7,0-1.3,0.1-1.8,0.4
	c-0.5,0.3-0.9,0.6-1.2,1.1c-0.3,0.5-0.6,1-0.7,1.7C112.5,22.4,112.4,23.1,112.4,23.8z"/>
<path d="M133.5,7v27h-5.1V7H133.5z M145.5,15l-8.3,9.4l-4.4,4.5l-1.8-3.7l3.5-4.5l4.9-5.8H145.5z M140.2,34l-5.6-8.8l3.5-3.1l8,11.8
	H140.2z"/>
<path d="M170.2,27.3c0-0.5-0.1-0.9-0.2-1.2c-0.1-0.4-0.4-0.7-0.7-1c-0.4-0.3-0.9-0.6-1.5-0.9c-0.7-0.3-1.5-0.6-2.5-0.9
	c-1.2-0.4-2.3-0.8-3.3-1.3c-1-0.5-1.9-1-2.7-1.6c-0.8-0.6-1.4-1.4-1.9-2.2c-0.4-0.8-0.7-1.8-0.7-2.9c0-1.1,0.2-2,0.7-2.9
	c0.5-0.9,1.1-1.6,2-2.3c0.8-0.6,1.8-1.1,3-1.5c1.2-0.3,2.4-0.5,3.8-0.5c1.9,0,3.5,0.3,4.9,1c1.4,0.7,2.5,1.6,3.3,2.8
	c0.8,1.2,1.2,2.5,1.2,4.1h-5.2c0-0.8-0.2-1.4-0.5-2c-0.3-0.6-0.8-1-1.4-1.4c-0.6-0.3-1.4-0.5-2.4-0.5c-0.9,0-1.7,0.1-2.3,0.4
	c-0.6,0.3-1.1,0.6-1.4,1.1c-0.3,0.5-0.5,1-0.5,1.5c0,0.4,0.1,0.8,0.3,1.2c0.2,0.4,0.5,0.7,1,1c0.4,0.3,1,0.6,1.6,0.9
	c0.6,0.3,1.4,0.5,2.2,0.8c1.4,0.4,2.6,0.9,3.7,1.4c1.1,0.5,2,1.1,2.7,1.8c0.7,0.7,1.3,1.4,1.6,2.2c0.4,0.8,0.5,1.8,0.5,2.8
	c0,1.1-0.2,2.1-0.7,3c-0.4,0.9-1.1,1.6-1.9,2.2c-0.8,0.6-1.8,1.1-2.9,1.4c-1.1,0.3-2.4,0.5-3.8,0.5c-1.3,0-2.5-0.2-3.7-0.5
	c-1.2-0.3-2.3-0.8-3.4-1.5c-1-0.7-1.8-1.5-2.4-2.6c-0.6-1.1-0.9-2.3-0.9-3.7h5.3c0,0.8,0.1,1.5,0.4,2c0.2,0.6,0.6,1,1,1.3
	c0.5,0.3,1,0.6,1.6,0.7c0.6,0.2,1.3,0.2,2.1,0.2c0.9,0,1.7-0.1,2.3-0.4c0.6-0.3,1-0.6,1.3-1.1C170.1,28.4,170.2,27.9,170.2,27.3z"/>
<path d="M178,24.7v-0.4c0-1.4,0.2-2.7,0.6-3.8c0.4-1.2,1-2.2,1.7-3.1c0.8-0.9,1.7-1.5,2.8-2c1.1-0.5,2.4-0.7,3.8-0.7
	s2.7,0.2,3.9,0.7c1.1,0.5,2.1,1.2,2.8,2c0.8,0.9,1.4,1.9,1.8,3.1c0.4,1.2,0.6,2.5,0.6,3.8v0.4c0,1.4-0.2,2.7-0.6,3.8
	c-0.4,1.2-1,2.2-1.8,3.1c-0.8,0.9-1.7,1.5-2.8,2c-1.1,0.5-2.4,0.7-3.8,0.7c-1.4,0-2.7-0.2-3.8-0.7c-1.1-0.5-2.1-1.2-2.8-2
	c-0.8-0.9-1.3-1.9-1.7-3.1C178.2,27.3,178,26.1,178,24.7z M183,24.3v0.4c0,0.8,0.1,1.5,0.2,2.2s0.4,1.3,0.7,1.8
	c0.3,0.5,0.7,0.9,1.2,1.2c0.5,0.3,1.1,0.4,1.8,0.4c0.7,0,1.3-0.1,1.8-0.4c0.5-0.3,0.9-0.7,1.2-1.2c0.3-0.5,0.5-1.1,0.7-1.8
	c0.2-0.7,0.2-1.4,0.2-2.2v-0.4c0-0.8-0.1-1.5-0.2-2.2c-0.1-0.7-0.4-1.3-0.7-1.8c-0.3-0.5-0.7-1-1.2-1.3c-0.5-0.3-1.1-0.5-1.8-0.5
	s-1.3,0.2-1.8,0.5c-0.5,0.3-0.9,0.7-1.2,1.3c-0.3,0.5-0.5,1.1-0.7,1.8C183.1,22.8,183,23.5,183,24.3z"/>
<path d="M209.4,29.7v-8.5c0-0.6-0.1-1.1-0.3-1.6c-0.2-0.4-0.5-0.8-0.9-1c-0.4-0.2-0.9-0.4-1.6-0.4c-0.6,0-1,0.1-1.5,0.3
	c-0.4,0.2-0.7,0.5-0.9,0.8c-0.2,0.4-0.3,0.8-0.3,1.2h-5.1c0-0.8,0.2-1.6,0.6-2.3s0.9-1.4,1.6-1.9c0.7-0.6,1.6-1,2.5-1.3
	c1-0.3,2.1-0.5,3.3-0.5c1.5,0,2.8,0.2,3.9,0.7c1.1,0.5,2.1,1.2,2.7,2.2c0.7,1,1,2.2,1,3.7v8.1c0,1,0.1,1.9,0.2,2.6
	c0.1,0.7,0.3,1.2,0.6,1.7V34h-5.1c-0.2-0.5-0.4-1.2-0.6-1.9C209.4,31.3,209.4,30.5,209.4,29.7z M210,22.4l0,2.9h-2.8
	c-0.7,0-1.2,0.1-1.7,0.2c-0.5,0.2-0.9,0.4-1.2,0.7c-0.3,0.3-0.6,0.6-0.7,0.9c-0.1,0.4-0.2,0.8-0.2,1.2c0,0.4,0.1,0.8,0.3,1.2
	c0.2,0.3,0.5,0.6,0.9,0.8c0.4,0.2,0.8,0.3,1.3,0.3c0.8,0,1.4-0.2,2-0.5c0.6-0.3,1-0.7,1.3-1.1c0.3-0.4,0.5-0.9,0.5-1.3l1.3,2.1
	c-0.2,0.5-0.4,1-0.8,1.5c-0.3,0.5-0.7,1-1.2,1.5c-0.5,0.4-1.1,0.8-1.8,1.1c-0.7,0.3-1.5,0.4-2.5,0.4c-1.2,0-2.3-0.2-3.3-0.7
	c-1-0.5-1.7-1.2-2.3-2c-0.6-0.9-0.8-1.9-0.8-3c0-1,0.2-1.9,0.6-2.7c0.4-0.8,0.9-1.4,1.7-2c0.7-0.5,1.7-0.9,2.8-1.2
	c1.1-0.3,2.4-0.4,3.8-0.4H210z"/>
<path d="M223.7,7v27h-5.1V7H223.7z"/>
<path d="M44,22c0,12.2-9.8,22-22,22C9.8,44,0,34.2,0,22C0,9.8,9.8,0,22,0C34.2,0,44,9.8,44,22z"/>
</svg>
